/* XPM */
static char *c3e247bdd84741b79cecc3d36889190bRJdcOUntkacQNbol[] = {
/* columns rows colors chars-per-pixel */
"62 124 239 2 ",
"   c #1A0E0D",
".  c #150C0D",
"X  c #160E12",
"o  c #1B1212",
"O  c #181519",
"+  c #110B13",
"@  c #27110E",
"#  c #261817",
"$  c #341C17",
"%  c #2E110C",
"&  c #36211D",
"*  c #10112A",
"=  c #241E23",
"-  c #2B2527",
";  c #372827",
":  c #383438",
">  c #332E31",
",  c #591A0B",
"<  c #461A0F",
"1  c #6B1D0A",
"2  c #731F0A",
"3  c #47251B",
"4  c #53271B",
"5  c #79210B",
"6  c #702815",
"7  c #472C25",
"8  c #562D21",
"9  c #48312B",
"0  c #5A3327",
"q  c #45393A",
"w  c #573D35",
"e  c #673828",
"r  c #743B27",
"t  c #633D31",
"y  c #5A433D",
"u  c #784737",
"i  c #6F4233",
"p  c #090D4C",
"a  c #3D264D",
"s  c #3E3D42",
"d  c #38244F",
"f  c #080E7B",
"g  c #091067",
"h  c #261F7B",
"j  c #261E64",
"k  c #453E42",
"l  c #603D40",
"z  c #195575",
"x  c #1F5E78",
"c  c #474549",
"v  c #584A47",
"b  c #4D4D52",
"n  c #535256",
"m  c #555559",
"M  c #5B595D",
"N  c #5A5557",
"B  c #525053",
"V  c #654C45",
"C  c #6B5349",
"Z  c #765649",
"A  c #665A5A",
"S  c #78544D",
"D  c #79635A",
"F  c #5D5D61",
"G  c #625E62",
"H  c #5F6165",
"J  c #656569",
"K  c #766B6A",
"L  c #6B6D72",
"P  c #767578",
"I  c #737073",
"U  c #8A250B",
"Y  c #99280D",
"T  c #852C13",
"R  c #943115",
"E  c #A22B0E",
"W  c #A93514",
"Q  c #B73B16",
"!  c #863C25",
"~  c #963D21",
"^  c #B3421C",
"/  c #88432C",
"(  c #854A36",
")  c #974D33",
"_  c #8D523E",
"`  c #98543B",
"'  c #98472C",
"]  c #A54929",
"[  c #B54924",
"{  c #AA5A3B",
"}  c #B55C39",
"|  c #AF502E",
" . c #B5623E",
".. c #AE613F",
"X. c #C8471B",
"o. c #D44E1E",
"O. c #D95522",
"+. c #C94F22",
"@. c #E35922",
"#. c #E96B33",
"$. c #EC6F37",
"%. c #CB6134",
"&. c #895645",
"*. c #975944",
"=. c #885758",
"-. c #A85D42",
";. c #B15F41",
":. c #89695B",
">. c #966B59",
",. c #986C59",
"<. c #AC6348",
"1. c #B46344",
"2. c #B36649",
"3. c #BC6B4C",
"4. c #B6684A",
"5. c #B86D51",
"6. c #BA7559",
"7. c #A56C55",
"8. c #866D61",
"9. c #8D7366",
"0. c #977564",
"q. c #907B73",
"w. c #B77C63",
"e. c #A77C67",
"r. c #C36D4B",
"t. c #C46A47",
"y. c #C9724E",
"u. c #C47454",
"i. c #C57B5C",
"p. c #C97B5A",
"a. c #D27A53",
"s. c #C37E62",
"d. c #E77946",
"f. c #978279",
"g. c #A9826D",
"h. c #B7836B",
"j. c #AA8875",
"k. c #B58F79",
"l. c #D2815C",
"z. c #CC8B6D",
"x. c #C98466",
"c. c #D48C6B",
"v. c #D48967",
"b. c #D8906E",
"n. c #CA8E71",
"m. c #C9957A",
"M. c #D49373",
"N. c #DB9574",
"B. c #DC9B7B",
"V. c #DA9978",
"C. c #E19D7A",
"Z. c #E3A17E",
"A. c #DEA07F",
"S. c #030D98",
"D. c #05128C",
"F. c #11278E",
"G. c #020EA5",
"H. c #0414A8",
"J. c #0314B4",
"K. c #041ABD",
"L. c #0417B9",
"P. c #082BB8",
"I. c #212182",
"U. c #186484",
"Y. c #0C6595",
"T. c #0372A9",
"R. c #0365B9",
"E. c #0371B2",
"W. c #0262AD",
"Q. c #064FB1",
"!. c #797C82",
"~. c #051DC1",
"^. c #0825CC",
"/. c #0826C9",
"(. c #0936C9",
"). c #092BD1",
"_. c #0827D0",
"`. c #0C32D3",
"'. c #0C38D7",
"]. c #045FC2",
"[. c #0943CB",
"{. c #0461C2",
"}. c #877F80",
"|. c #7E8288",
" X c #82868C",
".X c #84888E",
"XX c #868486",
"oX c #868B92",
"OX c #898E95",
"+X c #898F98",
"@X c #8B9096",
"#X c #8E959D",
"$X c #8F989F",
"%X c #91979E",
"&X c #92989F",
"*X c #99999B",
"=X c #968C89",
"-X c #AE988C",
";X c #8F97A0",
":X c #8F98A1",
">X c #9097A0",
",X c #9097A0",
"<X c #9198A0",
"1X c #9298A0",
"2X c #9299A1",
"3X c #9C9DA0",
"4X c #AAA19D",
"5X c #C89C82",
"6X c #D29D81",
"7X c #D8A487",
"8X c #D5AB8F",
"9X c #E3A584",
"0X c #E6AC8B",
"qX c #EAAD8B",
"wX c #E6A987",
"eX c #EDB18E",
"rX c #ECB493",
"tX c #EDB997",
"yX c #EDBD9B",
"uX c #E5B899",
"iX c #F1B693",
"pX c #F3B996",
"aX c #F2BD9B",
"sX c #F0B28F",
"dX c #ECBEA0",
"fX c #EFC09D",
"gX c #F4C19E",
"hX c #F8C29E",
"jX c #EEC3A5",
"kX c #F4C4A4",
"lX c #F8C6A4",
"zX c #F6C9A6",
"xX c #F8C9A6",
"cX c #F3C6A8",
"vX c #F6CAA9",
"bX c #F8CAA8",
"nX c #F8C6A8",
"mX c #F9D1B1",
"MX c #FFDEC0",
/* pixels */
"&X&X&X&X&X&X&X&X&X&X&X&X1X&X<X<X<X<X<X<X<X<X<X<X<X<X>X>X<X>X&X>X&X&X<X&X<X>X&X<X&X&X&X&X&X&X$X<X&X<X<X&X&X&X&X&X&X<X<X<X1X<X",
"&X&X&X&X&X&X&X&X&X&X&X&X<X<X<X<X<X<X<X<X<X<X&X<X<X<X>X>X>X>X;X>X&X&X&X&X&X&X&X&X&X&X&X&X&X&X<X&X&X<X<X&X&X&X&X$X$X<X<X<X<X>X",
"&X&X&X&X&X&X&X&X&X>X:X:X<X<X<X<X<X<X<X<X<X>X&X&X<X1X<X&X>X>X>X&X<X&X&X&X&X&X&X&X&X&X&X&X&X&X&X&X&X&X<X&X&X&X&X$X$X<X<X<X>X<X",
"&X<X>X&X&X&X&X<X&X<X<X<X&X&X<X<X$X:X$X$X$X&X$X$X$X$X$X&X&X$X$X$X$X$X$X$X$X$X$X$X$X&X&X#X$X$X$X&X$X&X&X&X&X<X>X&X&X>X<X<X;X;X",
"&X&X&X&X&X&X>X<X<X<X<X&X&X&X<X<X$X$X&X&X$X@X.X.X XoX.X X X.XoX X.XoX.X.X.XoXoXoXoX.XoXoXoX%X$X$X&X>X:X&X&X<X&X&X&X&X<X&X&X;X",
"&X&X&X&X&X<X<X<X:X<X<X&X>X$X<X<X$X&X&X*X&X XK J J K K K J K I K I K K K I I K I I K K K L  X%X$X&X<X>X&X&X<X&X&X&X;X$X&X;X$X",
"&X&X&X&X&X<X<X<X:X<X>X<X<X>X&X&X<X<X&X%X*XK l i u u i u ( ( _ _ &.&.&.&.&.&.*.*.&.&.&.C q J @X@X@X&X&X<X$X&X&X&X&X;X&X&X;X>X",
"&X&X&X&X<X&X<X<X<X<X&X<X<X&X&X<X<X$X!.L K i 6 R R T R W W ^ [ | | [ [ | } } } } } } | ' 3 q J J P %X&X:X;X&X&X&X&X&X&X&X>X<X",
"&X&X&X>X>X<X&X<X<X<X<X<X<X&X&X<X1XoXm 9 8 6 U W W W Q X.+.O.O.O.O.O.@.#.#.d.d.#.$.$.$.%.! r 0 & B @X3X1X&X&X&X&X&X&X&X&X<X<X",
"&X&X>X<X>X<X<X<X<X<X<X<X>X&X&X<X&XP > < 2 U Y W Q W Q X.O.@.@.@.@.@.@.#.#.$.$.$.l.d.$.$.+.[ ! @ c OX1X1X&X&X&X<X<X$X&X<X<X<X",
"&X&X>X<X<X<X<X<X<X<X<X<X&X&X<X<X&XJ # , U Y E E E W Q X.X.O.@.@.@.@.@.@.@.@.#.$.$.$.#.#.#.#.] $ c oX1X1X$X&X&X<X<X<X<X<X&X<X",
"&X&X<X<X<X<X<X<X<X<X<X<X&X&X<X<X$XJ # , U Y E E E E Q Q Q X.X.X.O.O.O.O.O.o.O.#.#.@.@.O.O.O.] $ c OX<X<X<X&X&X<X1X<X<X<X&X&X",
"<X$X;X<X<X:X:X<X<X<X<X<X&X&X<X<X$XJ - , U Y Y E E E E W Q Q X.X.o.O.o.^ Q T T [ [ [ +.X.o.O.W % c OX<X&X&X<X&X<X<X<X<X<X&X&X",
"1X>X<X<X<X<X<X<X<X<X<X<X<X<X&X:X&XJ = < 2 U Y Y E E E E W W W W ^ +.^ Y 2 < $ 5 5 T ^ X.[ [ T % c OX<X&X&X<X<X<X<X:X:X&X&X<X",
"<X&X<X<X<X<X<X<X<X<X<X<X<X<X&X<X&XL = % 2 2 U Y E E Y Y Y Y E Y W [ [ T 6 % % , 6 1 T R 5 6 8 $ B @X<X&X&X<X<X<X<X<X<X<X<X<X",
">X&X&X<X<X1X<X<X<X<X<X<X<X<X&X<X<XP > @ 1 2 5 Y E E Y Y U 5 T ~ W ] ] ~ ! 6 8 r i r 6 r 4 < y N L #X<X&X1X<X<X<X<X<X&X<X<X<X",
"<X&X&X:X:X<X<X<X<X<X<X<X<X<X&X<X1X|.: @ , 2 5 U Y E E Y U 5 ! ] ] ] ] | ] ) ` { { ` ) ( $ o m OXOX$X<X&X&X&X<X<X<X<X&X<X<X<X",
"<X&X&X<X<X:X:X<X<X<X<X<X<X<X>X<X<X@Xn @ < , 2 2 U Y Y Y U 5 ) 1.} { ) ] { r.3.3.1.-.<.*.3 X H <X$X;X;X>X<X&X<X<X<X<X<X<X<X<X",
"<X&X&X<X<X:X:X<X<X<X<X<X&X&X&X>X>X&XJ # % , 1 2 5 U U Y U 5 -.n.n.7.e 8 7.B.7XV.h._ &.7.7 X H <X<X:X&X<X&X&X<X<X<X:X<X<X<X<X",
"<X&X&X<X<X<X:X<X1X<X<X:X&X&X&X$X>X<X!.q < , 1 2 2 2 5 U U 5 6.aXkXg.$   9.cXzXmX5X9 V f.q O J <X&X>X&X&X&X&X<X<X<X<X:X<X<X<X",
"<X&X<X<X<X<X<X<X&X&X<X<X:X&X&X$X;X>X@XJ 7 , 1 1 2 2 2 5 U T 6.vXmXk.&   0.mXmXMXk.; v -Xc # L <X&X&X&X>X<X<X<X<X<X<X<X<X<X<X",
":X:X<X<X:X<X<X<X$X&X>X<X:X<X&X&X&X&X>X|.N 0 , 1 2 2 5 U R ] z.kXbX5XD C k.vXbXmX5XC :.q.: s |.&X&X&X&X&X<X<X<X1X<X<X<X<X<X<X",
"<X<X<X:X:X>X<X:X<X$X&X<X:X1X&X&X>X&X&X$XoXK 7 < , 2 U R ] 5.9XaXhXrX8X7XrXhXkXnXrXm.m.S - J #X&X&X&X&X<X1X<X<X<X<X<X<X<X<X&X",
"<X<X<X1X<X$X<X1X<X&X&X&X>X<X1X1X<X&X&X&X1X.XN & % , 5 ~ ] u.wXpXaXaXaXaXgXpXpXaXrXwXZ.&.- P 1X&X&X&X&X<X<X<X<X<X<X<X<X<X<X<X",
"<X<X<X1X<X:X<X<X<X<X&X<X<X<X<X1X<X>X<X<X1X&X!.k   4 / ' ' ;.x.9XpXpXpXpXpXqXB.M.n.h.w.t - P *X&X&X&X$X;X<X&X>X<X<X<X&X&X<X<X",
"<X>X<X:X<X<X1X<X<X<X<X&X<X<X<X<X>X>X<X<X&X1X#XF # t 1.) ! / { u.V.wXiXiXiX7Xh.<.Z V y > :  X1X$X$X&X&X&X&X&X>X&X<X<X<X&X<X<X",
"<X<X<X<X<X:X<X<X<X&X<X$X<X<X<X&X<X>X<X>X$X&X1XL # i r.1.{ ` ) ( &.w.9XwX9XV.x.&.7 q G J L @X&X&X$X<X&X&X&X&X&X&X<X<X<X:X<X<X",
"<X<X<X<X&X&X:X<X<X&X<X1X1X1X&X&X<X<X1X&X.X!.!.M # u r.t.4.4.;.! r <.x.l.p.s.h.V ; F OX%X#X&X*X*X&X&X&X$X&X<X&X&X<X<X&X<X<X<X",
"<X<X<X>X&X&X<X<X<X&X&X%XOXOXOXOXoXoXOXoXJ b m k $ u r.r.r.r.3.{ -.4.3.{ ` ( C w b P oXOXoXOXoXOXoXoXOX#X<X<X$X&X<X&X&X<X<X<X",
"<X<X<X<X&X&X<X;X&X&X@XL M M m M M M M n : > V i e *.u.r.3.r.t.t.r.5.4.} ) 7 & - : n m n m m m n n m J .X$X$X$X$X&X&X<X<X&X$X",
"&X<X$X>X&X&X<X$X.X!.I c > : ; 9 0 0 w 9 ; 7 _ -.-.1.1.r.r.r.r.r.3.3.3.r.;.e & 7 ; 9 9 9 9 9 9 9 9 - - F P L !.$X<X&X$X<X&X&X",
"<X<X&X&X$X$X#X.XJ M M w t u &._ &._ _ &._ ` <.3.r.r.r.r.r.r.5.r.r.r.u.u.3.-._ _ *._ _ *.*._ _ _ ( 0 # : c q b |.@X$X&X<X&X<X",
"<X&X$X$X$X.XL F C 8.0.0.h.n.z.x.z.z.z.z.x.v.c.b.b.b.b.b.b.b.b.b.c.c.b.M.c.c.c.c.M.c.c.m.z.z.n.M.n.e.D D :.A k b J .X&X&X>X&X",
"&X&X$X$X$XL k 7 =.7XrXtXtXyXyXtXtXtXiXpXpXiXiXpXaXtXpXiXiXiXpXiXiXpXyXyXyXyXtXtXyXyXyXtXyXaXyXyXfXyXuXuXyX8XD q c J .X$X&X&X",
"&X&X$X$X|.m ; 8 7.tXvXzXzXnXzXzXkXkXzXnXzXkXkXkXnXzXzXkXnXzXnXkXkXzXzXkXkXkXkXzXzXzXzXzXzXzXzXzXkXkXzXvXcXcX7Xj.C : J #X<X&X",
"&X$X$X!.F A u *.c.hXbXbXzXzXzXzXzXzXzXzXzXzXzXbXzXzXzXvXzXbXbXzXzXzXzXzXzXzXzXzXzXzXzXzXzXzXzXzXzXzXzXzXzXzXvXcX:.o n @X<X<X",
"&X$X$XL 9 >.m.V.qXxXbXbXbXzXzXvXbXzXvXbXzXzXbXbXbXzXzXbXzXzXbXzXzXvXzXzXzXzXzXzXzXzXzXzXzXzXzXzXzXzXzXzXzXzXzXzX:.  b @X<X<X",
"$X&X&XJ 9 h.aXtXaXxXbXvXbXbXzXnXbXbXbXbXzXzXbXbXbXbXzXbXbXzXbXzXvXbXzXzXzXzXzXvXzXzXzXzXzXzXzXzXzXzXzXzXzXzXzXvX:.o b @X<X&X",
"$X$X&XJ 9 k.xXkXnXxXbXvXbXzXhXaXnXbXbXvXzXbXbXzXzXvXzXbXbXbXbXbXbXvXzXzXzXzXzXvXzXzXzXzXzXzXzXzXzXzXzXzXzXzXvXcX:.o n #X<X$X",
">X&X*XI v m.bXnXxXbXbXvXbXkXrXwXpXvXbXbXbXbXbXzXzXvXzXzXbXzXbXzXvXzXzXzXzXzXzXzXzXzXzXvXzXvXvXaXgXzXzXzXzXzXzXcX9.o n #X:X$X",
":X$X=Xe.0.8XbXzXlXbXbXzXzXzXrXM.B.kXnXbXbXbXzXzXzXvXzXzXzXzXzXzXbXzXvXzXzXzXzXzXzXzXbXzXvXbXkXwXwXnXzXzXzXzXzXcX,.o n #X:X$X",
":X@Xe.z.V.0XbXzXkXbXxXbXzXvXrX5.z.kXkXbXbXbXzXzXzXzXzXzXzXzXzXzXvXvXzXzXzXzXzXzXzXbXxXnXnXbXaXn.M.jXzXkXzXzXzXcX,.o b @X:X$X",
":X.X:.x.V.rXbXkXhXlXbXbXbXbX6Xi 0.tXaXnXvXzXzXnXzXvXzXzXzXnXzXzXzXzXzXzXzXvXzXbXzXvXzXhXaXnXrX6.w.uXzXzXzXzXzXcX9.# B #X<X$X",
":X#Xq.,.z.pXkXhXhXlXxXbXbXbXh.& Z 6XrXnXvXzXzXzXvXbXbXkXfXkXzXzXzXzXzXzXzXzXzXbXbXbXbXaXiXpXwX6.u e.jXzXzXzXzXcX9.# n #X:X&X",
"<X<X XV g.kXhXhXkXlXxXbXbXvX0.@ i i.7XkXbXzXzXzXvXbXbXkXyXkXzXzXzXzXzXzXbXzXnXzXbXzXbXkXeXwXN.5.4 V uXvXzXzXzXjX>.# B OX:X$X",
"<X<X|.q ,.kXhXkXxXzXxXbXbXbX0.  e i.B.pXkXaXgXkXnXnXzXkXaXkXzXcXkXkXzXzXzXkXrXaXaXaXkXpXC.c.p.4.3 y uXbXkXkXzXcX:.o n #X<X$X",
"$X<X!.: :.kXlXlXlXkXxXbXbXbX0.  e 5.p.M.M.V.B.7XrXpXpXaXtX0X0X0X0XqXgXzXnXeXV.N.C.N.C.N.x.5.3.<.7 y uXvXkXzXzXvX9.o n #X:X$X",
"$X.XJ - :.kXbXnXkXkXlXxXbXvX0.  t 1.4.3.4.4.3.x.9XeXeXrXwXM.z.c.z.M.9XkXpXV.i.6.4.1.2.4.2.` _ u 3 Z uXvXgXzXzXcX>.o n #X:X$X",
"oXM > - >.hXhXhXaXhXlXhXxXnX0.  t 2.1.3.4.1.4.c.9XiXrXiX9Xx.x.s.x.x.m.iX0Xz.6.<.) ) ` ) / r 3 3 8 >.yXzXkXkXzXyX:.O n @X$X$X",
".X: @ 0 w.C.Z.C.C.iXkXkXlXnX9.  t 5.5.i.x.x.M.9XrXaXhXhXrXB.B.6XB.B.7XpXrX7Xm.n.6.6.w.5.` i @ # r 6.rXzXkXcXzXkX:.O n $X$X$X",
".X: # &.s.l.p.p.p.9XhXkXhXkX9.  t 5.i.V.C.wXaXkXkXnXgXrXeXqXqX0XqX0XqXrXrXtXyXyXrXrXrXV.5.&.@ $ ` i.rXvXnXzXzXcX:.X n #X$X$X",
".Xk # i ;.3.r.t.r.C.aXpXaXkX0.  t 5.b.tXpXaXzXzXzXnXtXB.M.V.V.V.V.V.V.B.7XtXzXzXbXnXnXB.i.&.@ 8 4.c.tXnXkXzXzXkX>.o b oX&X$X",
"I b ; & / 3.y.a.y.N.iXpXaXjX8.  0 5.B.nXcXnXbXbXzXvXpXB.V.B.B.B.B.B.B.V.9XaXvXbXzXzXbX9Xu.&.@ 0 z.9XtXkXzXzXzXfX:.# b OX<X&X",
"b v v 7 i 6.p.y.a.b.9XsXsXrX8.  w i.wXnXzXzXbXbXvXzXkXaXaXyXaXyXyXyXaXyXyXnXzXzXzXzXbX9Xu._ @ w 7XrXaXnXzXzXvXgXe.q c !.$X$X",
"> v e.7.5.x.b.v.v.c.N.V.N.9X:.  e 6.0XbXvXzXbXzXbXzXzXzXzXvXzXzXzXzXzXzXzXzXzXnXnXzXvX9Xu._ @ y 8XnXkXcXnXcXcXcX5X:.q M #X&X",
"- 9 h.v.c.9X9XZ.Z.C.C.N.N.wX:.  t 6.0XvXvXzXnXzXbXzXzXzXzXzXzXzXzXzXzXzXzXzXzXzXzXnXvXwXi._ # v uXvXcXcXnXkXcXcXkXk.- c %X&X",
"= ; <.a.b.rXaXpXpXpXtXiXiXpX,.  e s.rXvXzXzXcXnXzXzXzXzXzXzXzXzXzXzXzXzXnXzXzXzXnXnXbX9Xu.&.# v uXvXcXcXcXcXcXcXvXk.- s #X<X",
"O $ -.y.c.aXzXnXlXkXnXkXlXkX9.o 0 6.eXbXbXvXcXzXzXzXzXkXnXzXzXzXkXkXzXkXbXzXzXzXzXzXlX9X6._ # V uXbXnXcXkXjXkXkXvXk.& : @X<X",
"= & *.y.c.hXzXnXlXhXlXnXbXnX0.  w 6.wXbXzXzXzXzXzXnXzXkXzXzXzXzXzXcXzXzXnXnXzXzXzXvXxX9Xi.*.# V uXvXkXcXkXkXcXkXbX-X$ : @X1X",
"O $ *.r.c.aXcXnXxXlXlXlXlXkX0.  9 5.B.aXyXyXyXyXyXyXyXuXrXyXyXyXyXyXyXrXrXtXuXuXyXyXyXV.6.( @ v uXvXjXjXcXkXkXkXbXk.$ : #X<X",
"O # *.y.c.aXnXnXnXxXlXxXlXnX9.. 7 &.,.j.g.g.g.g.g.g.j.g.g.g.g.g.g.g.g.0.0.,.,.e.e.e.e.,.&.e o v uXvXcXcXcXkXkXcXbXk.$ : #X<X",
"O $ -.r.c.pXnXcXnXxXxXnXxXnX0.  = c m H M m n n n m m m m m n m n B v b b b c b n n n b c > . V uXvXjXcXnXcXjXcXvXj.# : OX<X",
"O $ ` r.v.pXnXkXnXnXnXhXkXcX9.  * z x U.U.U.U.U.x x U.U.U.U.U.U.U.U.x U.U.U.U.U.U.U.U.U.U.z O V uXbXjXjXkXcXkXkXvXk.# : @X<X",
"O & -.r.v.aXnXnXkXkXkXaXcXzX0.  * Y.T.T.T.T.T.T.T.T.T.T.T.T.T.T.E.E.T.E.E.E.E.E.R.E.E.E.E.z + V uXvXcXcXkXkXcXcXvXj.# s OX1X",
"O $ -.y.v.pXnXnXkXkXkXnXzXzX0.. * W.R.E.W.W.R.R.R.R.R.R.R.R.R.R.].].].].R.].].].].].].].{.F.+ C dXbXcXcXcXcXcXcXnXj.$ s +X<X",
"O $ *.r.v.pXnXkXhXhXkXkXnXcX9.. * F.P.(.P.P.(.P.P.(.(.P.[.(.[.[.(.[.(.P.(.(.(.`.'.(.(.'.[.F.+ C uXvXcXcXcXkXaXcXnXg.# s @X<X",
"O # -.r.v.pXkXkXhXhXhXkXnXnX0.. p H.P.P.K.P./.K.K.`./.P.).^.).)./.).)././.^.^._._._.).).).S.+ C uXvXcXcXcXkXnXcXnXj.# s @X<X",
"O $ -.r.x.iXhXgXhXhXaXaXlXnX0.. p H.(.P./.(.'.).).`.`./.`.`.`.).).^.)._.^.^.).).^.).`.).).H.* C dXcXkXkXkXkXkXkXvXk.- s #X<X",
"O ; -.r.v.pXgXhXhXhXaXhXlXnX9.X p L.(.).).'.'.`.`.'.`.`.'.'.`.).`.).).)._.).'.'.^.`.`.).).F.* A uXkXkXkXkXkXaXkXnXk.- s @X<X",
"c V <.t.p.qXgXhXhXhXhXhXlXnX9.. p H./.(.`.`.).`.`.`.`.`.).`.).).).).).).).).`.`.)._.).).`.H.* S uXzXkXkXaXkXaXkXvXj.# c #X<X",
"!.q.5.t.y.b.rXyXyXpXiXpXaXyX:.. * S./.K././.L././././.^././.~./././.^.^.^._.^./.^./.^.^.).D.* Z yXnXkXkXaXaXaXaXkXj.> b #X&X",
"$X=X6.t.t.p.M.B.B.V.N.N.B.m.Z . p S.J.J.J.J.J.L.J.L.L.K.~.~.L.L.K.L.K.K.K././.~.~.~././.^.D.+ Z uXkXaXkXaXaXyXyX8X=XJ P $X>X",
"$X=Xw.t.1.3.p.p.p.p.u.u.p.>.: * g G.J.J.J.J.J.J.H.J.L.L.L.L.J.L.L.J.J.J.J.~.~.~.~.~.~.~./.D.+ C 7X9X7X7X9X9Xm.g.9.XX#X$X>X&X",
":X-Xw.t.{ {  . .1.4.1. .1.0 o p D.G.J.L.J.J.L.L.L.J.L.L.L.J.L.L.L.K.K.J.L.~.K.J.K.K.L.K.L.D.* 0 5.u.5.5.6.u.` 8 c |.<X&X<X<X",
"<X4Xh.4.i e ;.3.3.5.r.r.1.3 + p S.J.L.~.L.J.~.~.L.J.L.L.L.L.K.K.~.~./.K.K.K.L.L.K.K.~.K.L.D.+ 8 1.4.1.1.1.4.r @ > |.<X$X<X<X",
">X*Xf._ 8 8 -.u.u.u.y.y.3.0 + p G.J.J.K.K.J.L.~.L.L.K.J.J.G.S.L.~.L.K.K.K.J.J.K.J.L./.L.K.D.+ 8 1.1.4.4.1.4.u ; b .X<X$X1X<X",
";X1Xq.w 0 ( { ..<.` ;.t.3.u O p S.G.G.H.J.J.G.J.J.G.G.S.D.f g D.G.G.H.G.G.G.G.G.G.G.J.G.G.f * 7 -.{ -.{ 1.7.Z A !.#X&X&X>X&X",
">X1X.Xb w Z ( / ( u `  .1.t X p f S.S.S.G.G.S.S.S.G.G.D.f p * p g f f f f f f f D.f D.f f p + $ e e e e &.q.9.}.$X&X&X&X>X<X",
"&X<X@XL M A C e 8 8 r / ! & . d h h h I.F.I.h h h I.I.h h p + * d a a a a a a a a a a a d - o @ & ; ; 9 A XX=X#X$X$X<X<X<X<X",
"$X<X$XoX|.|.D 9 & $ 3 7 7 # . q =.=.=.=.=.=.=.S =.=.=.S A q . # C *.>.>.>.=.,.7.7.>.&.&.&.i & ; w c c M P @X%X&X&X$X;X<X<X<X",
":X>X&X&X&X&X|.m b v v b b > . e 1.u.z.n.m.n.z.z.n.n.n.h.h.u   3 -.u.c.C.V.B.B.V.B.M.M.M.M.7.; c I I P  X#X&X&X&X&X&X>X<X<X1X",
"<X&X>X&X<X&X%XoX.X.X.X.X Xb X e 1.c.rXpXtXaXpXpXpXpXaXrXA.:.  7 2.i.0XaXpXaXkXaXpXpXpXtXkX-X- b OX#X#X&X&X&X1X&X&X<X<X<X<X<X",
"<X&X<X<X&X<X<X<X1X<X&X1X%XM X e } b.hXkXkXnXnXkXnXnXkXkXtX:.o 7 <.i.rXlXkXkXkXnXnXaXkXkXbX5X; b &X<X&X&X&X&X<X<X&X>X<X<X<X<X",
">X&X<X<X&X<X<X<X<X&X$X:X&Xm o r  .c.gXhXaXaXhXaXhXhXkXlXgX,.@ 8 <.i.rXkXkXkXhXkXkXaXaXgXbX-X; n &X<X&X<X<X&X<X<X<X>X<X<X;X;X",
"<X<X<X<X&X<X<X<X<X&X&X<X@Xn o t 4.c.fXkXaXaXaXhXhXhXlXkXhX0.o 8 2.i.rXnXkXhXhXkXkXhXkXaXbX-X- N $X<X&X&X<X<X<X<X<X>X<X<X>X<X",
"&X<X<X&X&X<X<X<X<X<X<X<XoXb o t 1.c.tXkXhXpXaXhXhXhXaXgXkX,.  7 <.p.rXkXkXkXkXkXnXkXhXaXbXk.# m #X<X&X&X<X<X<X<X<X>X<X<X>X>X",
"&X<X&X<X&X<X<X<X<X<X<X<X$Xn . e 1.c.yXkXhXaXaXgXhXaXpXgXgX9.o 7 <.i.eXkXgXkXgXaXaXkXhXaXbXg.# m &X<X&X&X<X<X<X<X<X>X>X<X<X;X",
"&X&X&X&X&X<X<X<X<X<X<X<X&Xn . r 1.c.yXgXaXkXaXpXaXaXaXaXzX9.. 4 2.s.rXhXgXgXkXaXhXkXaXhXnX0.  n &X<X&X>X<X<X<X<X<X<X<X<X<X:X",
"&X&X&X&X&X<X<X<X<X<X:X<XoXb X e  .c.yXgXaXaXaXaXaXaXaXgXcX0.  7 <.i.rXnXaXgXhXaXgXaXaXaXnX9.O M &X>X&X&X<X<X<X<X<X;X<X<X;X;X",
"&X&X&X&X&X<X<X>X:X:X:X<X#Xn X e 1.c.yXaXaXaXaXaXaXgXaXhXgX>.@ 7 <.u.eXkXaXgXgXaXgXaXaXaXnX9.o M 1X<X&X&X>X<X>X;X<X<X1X<X>X<X",
"&X&X&X&X&X<X<X<X<X:X:X<XOXb o e } p.rXaXaXyXaXpXiXrX8XtXkX:.. 8 2.i.wXaXaXyXaXhXgXaXaXaXnX9.. n &X&X&X<X<X;X<X<X;X>X>X<X<X;X",
"&X&X&X&X&X<X<X<X:X<X<X<X#Xb o r { x.yXgXaXaXpXpX0X0.8.5X8XD   7 2.u.M.9XtXyXaXkXkXgXkXgXnX0.o m <X>X&X&X<X;X;X;X;X;X;X<X;X;X",
"&X&X&X&X&X<X&X<X<X&X$X<XOXb X r  .c.pXaXaXtXpXaX7Xw 9 f.4XA   8 <.3.i.c.wXgXhXgXgXaXaXaXcX0.o M &X<X&X&X<X<X>X<X;X;X<X<X<X1X",
"&X&X&X&X<X<X&X&X$X$X:X1XOXb   e  .b.yXgXaXtXaXaX5X9 - q.4XM   0 4.4.3.p.C.aXhXaXaXaXaXgXnX:.X M &X<X<X;X<X<X<X<X<X;X;X>X<X>X",
"$X<X&X&X&X&X&X<X<X&X&X<XOXb o r 1.c.yXgXaXaXaXaX5X9 - XX*XA o 0 <.4.5.u.V.aXaXaXaXgXaXgXnX9.+ M &X<X1X<X<X<X;X<X>X;X>X>X;X;X",
"&X&X&X&X&X&X&X;X:X<X$X:X$Xc   r  .c.yXfXaXaXpXhX6X7 - XX*XM o e 1.4.4.u.B.aXaXaXaXaXtXaXnX9.O M &X<X<X<X<X<X>X;X;X>X<X<X;X;X",
"&X&X&X&X&X&X&X&X;X<X&X<X#Xb o r  .b.gXgXgXpXaXgX5X7 - f.*XM o e 2.4.3.u.B.aXaXaXyXyXyXaXnX8.X F <X<X1X1X<X<X>X;X>X<X<X<X;X;X",
"&X&X&X&X&X&X&X&X;X>X<X<X@Xc   r ..n.pXpXyXaXiXhX6X9 > XX*XM o e <.4.3.u.Z.hXaXaXyXaXpXaXkX8.o F 1X<X<X&X>X<X>X>X>X1X>X;X<X>X",
"&X&X&X&X;X&X&X>X>X>X<X<X@Xc   r  .c.yXyXtXfXaXpXm.7 - q.*Xm o e 1.1.3.u.B.kXkXyXyXaXpXyXjX:.o F <X:X$X&X<X>X<X1X>X<X;X;X1X1X",
"&X&X&X&X&X&X&X&X<X>X;X<XoXc @ r  .c.tXfXyXyXpXaX5X9 > XX*Xm o e 4.4.4.u.C.aXfXyXaXaXpXyXjX8.o F <X&X&X>X<X;X>X1X;X;X;X;X;X;X",
"&X&X&X&X&X&X&X&X>X;X;X<XOXc o r } z.yXtXrXpXpXpXm.9 > XX*Xn @ e <.1.3.i.9XaXyXyXaXyXyXyXjX:.o m &X&X&X$X>X;X>X;X;X;X;X;X;X;X",
"&X&X&X&X&X&X&X&X&X>X;X<X@Xc o r } z.yXtXrXiXpXpXm.; > XX*XN o e 1.1.4.p.qXgXyXyXaXaXaXaXjX:.o F <X<X&X$X;X;X;X;X;X;X;X;X;X;X",
"$X&X&X&X&X&X&X1X<X;X;X<X@Xc   r  .c.pXpXiXpXiXpXm.; > XX*XA o e 1.2.5.p.qXgXyXaXaXaXaXhXkX8.o F <X<X&X&X;X;X<X;X;X;X;X;X;X;X",
"$X&X&X&X&X&X&X&X>X;X$X<XoXc   r  .c.yXyXpXpXiXpXm.; > XX*Xm o e 2.1.3.v.qXgXaXaXaXaXaXkXkX8.o H <X<X&X$X>X<X>X>X<X;X;X;X;X;X",
"#X$X$X&X&X&X&X&X&X&X$X<XoXc   r 1.c.iXpXpXiXiXaXm.; > XX*Xm o e 4.1.3.c.rXaXaXyXaXaXaXhXcXK o H 1X&X&X&X>X;X>X;X<X<X;X;X;X;X",
"#X$X>X&X&X&X<X&X&X$X$X:X@Xc   r  .v.iXiXrXiXiXaXm.; - XX*Xm . e 1.1.3.c.rXaXaXyXpXaXkXnXvXK O J <X#X&X<X>X;X>X;X>X<X>X;X;X;X",
"$X&X$X$X&X&X&X<X$X$X$X$X@Xc   r } c.iXiXrXpXiXpXm.7 - XX*Xn o 0 1.} 4.v.iXpXpXpXaXaXtXrX8XD : L >X$X&X&X$X<X<X>X;X;X>X>X;X;X",
"#X&X&X&X&X&X&X&X&X$X$X<XoXc   r } c.iXiXrXiXiXpXm.; - f.*XN X e 1.1.1.v.iXpXpXpXaXpXwX9Xe.C P oX>X&X&X&X&X<X>X>X;X>X1X<X;X;X",
"#X$X>X&X&X&X&X&X&X<X&X<XoXs   r } v.iXrXiXiXiXpXm.; > XX*Xn . e 1.;.1.v.iXpXpXaXpXiXZ.N.*.V @X>X$X&X&X&X&X&X>X;X>X;X<X>X;X;X",
"#X$X&X&X&X&X&X&X&X&X&X<XoXs   r } c.iXrXiXiXiXpXm.; - oX3Xm   e 2.;.4.c.iXpXtXtXpXiXC.w.C v .X$X&X&X&X&X<X&X$X>X>X;X>X>X;X;X",
"#X$X&X&X&X&X&X&X&X&X&X<XoXs   r } c.iXiXiXiXsXpXk.& ; XX*XN   e 2.;.4.c.iXpXpXiXiXeXN.*.; : I @X$X&X&X&X&X&X&X>X<X;X;X;X>X;X",
"#X&X&X&X&X&X&X&X&X&X&X<XoX:   r } c.iXiXiXiXiXaXk.& 9 =X*XN   8 ;.;.1.v.iXpXpXpXwXC.v.u o # M @X$X&X<X%X&X&X>X&X>X$X;X;X;X>X",
"$X$X>X>X&X&X&X&X&X&X&X<XoX:   r } c.sXiXiXsXiXpXh.$ > .X3Xm . 8 -.} 1.c.iXiXpXpXwXc.p.( $ ; m P |.#X&X*X&X;X&X&X&X&X&X<X<X>X",
"$X&X>X&X&X&X&X&X&X&X&X<XoX:   r } x.eXiXiXsXiXpXw.& : .X3Xn   8 -.;.1.v.rXpXiXiXeXC.l.1.) &.C q M oX#X@X#X>X&X&X&X&X&X>X>X<X",
"$X$X>X&X>X&X&X1X&X&X&X<X.X: @ ! } r.C.sXpXiXpXpXm.S D I L q . 4 -.;.1.x.9XeXiXiXiXeXN.c.v.n.>.i V L J J P #X&X&X&X&X>X;X>X<X",
"$X>X&X&X&X&X&X&X&X&X&X<XoX> $ / { 1.a.Z.qXsXpXpX0X8Xm.:.c > . 4 -.} 1.p.c.N.eXiXiXsXqXwXqX9Xx.5.*.V ; - n OX&X$X&X&X&X<X>X<X",
"&X&X&X&X&X&X&X$X&X>X&X1X.X:   8 -.r.y.x.x.b.eXiXqXpXqXx.>.Z # 3 *.{ { 5.u.x.V.9X9XC.C.C.9XV.c.p.4.u # . c OX<X$X#X$X<X>X;X<X",
"&X&X&X&X&X&X>X&X&X&X&X<XOXM > & &.3.r.y.r.p.M.C.C.9XqX9X7Xg.7 7 u &.&.&.*.7.4.5.5.3.3.3.5.5.2.1.) 0   . b @X;X#X$X&X&X;X;X>X",
"&X&X&X&X&X&X&X<X&X&X&X<X#X.XJ ; w &.}  .1.4.r.r.r.p.b.M.B.h.v : c v N v N v 8 e e e e e e e e 0 3 # o - L $X$X$X>X&X&X;X<X<X",
"$X&X<X&X&X&X<X&X&X&X&X&X$X1X|.s & 8 e r ! r ! / / ( _ *.*.&.V v F L P P P b $ $ $ $ $ $ $ $ $ $ @ # c J .X&X&X$X&X&X$X;X>X<X",
"$X$X&X>X&X&X&X&X&X&X&X&X&X<XOXG : & $ < < < < < 3 4 4 8 0 0 w k J OX%X%X@XL q q k q k k k q k k q c P $X&X&X$X$X<X&X>X>X;X>X",
">X&X&X&X&X&X&X&X&X&X&X&X&X&X&XoXI q & & & $ & ; ; ; ; ; 7 9 > : G #X<X&X&XoX!.!.!.P !.!.!.P P !.P !.OX<X&X&X$X&X&X&X>X1X;X;X",
">X&X&X&X&X&X&X&X&X&X&X&X&X&X&X<X+XK F A M M M F J J F G J J G F P &X&X&X$X$X%X$X&X$X$X&X&X&X$X&X$X$X$X$X>X&X&X&X&X&X<X1X>X>X",
"<X&X&X$X&X&X&X&X&X&X&X&X&X<X>X&X$X#XOXoXoXoXOXoXoXOXoX@XOX.XOXOX@X*X&X&X$X$X&X>X;X;X$X>X<X>X<X>X;X:X$X$X;X&X&X&X&X&X&X>X<X>X"
};
